<mxfile host="app.diagrams.net" agent="Mozilla/5.0 (Windows NT 10.0; Win64; x64) AppleWebKit/537.36 (KHTML, like Gecko) Chrome/135.0.0.0 Safari/537.36" version="26.2.12">
  <diagram name="Page-1" id="ec0PnyET0IGt1z9h_bmW">
    <mxGraphModel dx="2278" dy="897" grid="1" gridSize="10" guides="1" tooltips="1" connect="1" arrows="1" fold="1" page="1" pageScale="1" pageWidth="850" pageHeight="1100" math="0" shadow="0">
      <root>
        <mxCell id="0" />
        <mxCell id="1" parent="0" />
        <mxCell id="ll6-AMVwoymQ2fTwj6-y-1" value="&lt;span style=&quot;font-size: 14px;&quot;&gt;Χρήστης&lt;/span&gt;" style="shape=umlActor;verticalLabelPosition=bottom;verticalAlign=top;html=1;outlineConnect=0;" parent="1" vertex="1">
          <mxGeometry x="-20" y="400" width="40" height="70" as="geometry" />
        </mxCell>
        <mxCell id="1mqICacHXQTMG9OdETwi-1" value="" style="shape=umlBoundary;whiteSpace=wrap;html=1;" vertex="1" parent="1">
          <mxGeometry x="190" y="320" width="100" height="80" as="geometry" />
        </mxCell>
        <mxCell id="1mqICacHXQTMG9OdETwi-2" value="&lt;font style=&quot;font-size: 14px;&quot;&gt;Homepage&lt;/font&gt;" style="text;html=1;align=center;verticalAlign=middle;resizable=0;points=[];autosize=1;strokeColor=none;fillColor=none;" vertex="1" parent="1">
          <mxGeometry x="200" y="290" width="90" height="30" as="geometry" />
        </mxCell>
        <mxCell id="1mqICacHXQTMG9OdETwi-3" value="&lt;font style=&quot;font-size: 14px;&quot;&gt;Επιλογή διαχείρισης&amp;nbsp;&lt;/font&gt;&lt;div&gt;&lt;font style=&quot;font-size: 14px;&quot;&gt;προφίλ&lt;/font&gt;&lt;/div&gt;" style="text;html=1;align=center;verticalAlign=middle;resizable=0;points=[];autosize=1;strokeColor=none;fillColor=none;rotation=-15;" vertex="1" parent="1">
          <mxGeometry x="30" y="350" width="150" height="50" as="geometry" />
        </mxCell>
        <mxCell id="1mqICacHXQTMG9OdETwi-4" value="" style="endArrow=none;html=1;rounded=0;entryX=-0.01;entryY=0.55;entryDx=0;entryDy=0;entryPerimeter=0;" edge="1" parent="1" source="ll6-AMVwoymQ2fTwj6-y-1" target="1mqICacHXQTMG9OdETwi-1">
          <mxGeometry width="50" height="50" relative="1" as="geometry">
            <mxPoint x="90" y="480" as="sourcePoint" />
            <mxPoint x="140" y="430" as="targetPoint" />
          </mxGeometry>
        </mxCell>
        <mxCell id="1mqICacHXQTMG9OdETwi-5" value="" style="endArrow=none;html=1;rounded=0;exitX=1.03;exitY=0.538;exitDx=0;exitDy=0;exitPerimeter=0;entryX=0.125;entryY=0.27;entryDx=0;entryDy=0;entryPerimeter=0;" edge="1" parent="1" source="1mqICacHXQTMG9OdETwi-1" target="1mqICacHXQTMG9OdETwi-6">
          <mxGeometry width="50" height="50" relative="1" as="geometry">
            <mxPoint x="30" y="437" as="sourcePoint" />
            <mxPoint x="330" y="400" as="targetPoint" />
          </mxGeometry>
        </mxCell>
        <mxCell id="1mqICacHXQTMG9OdETwi-6" value="&lt;font style=&quot;font-size: 14px;&quot;&gt;Εμφάνιση φόρμας στοιχείων προφίλ&lt;/font&gt;" style="ellipse;shape=umlControl;whiteSpace=wrap;html=1;" vertex="1" parent="1">
          <mxGeometry x="330" y="350" width="120" height="100" as="geometry" />
        </mxCell>
        <mxCell id="1mqICacHXQTMG9OdETwi-7" value="" style="shape=umlBoundary;whiteSpace=wrap;html=1;" vertex="1" parent="1">
          <mxGeometry x="195" y="470" width="100" height="80" as="geometry" />
        </mxCell>
        <mxCell id="1mqICacHXQTMG9OdETwi-8" value="&lt;font style=&quot;font-size: 14px;&quot;&gt;Edit Profile&amp;nbsp;&lt;/font&gt;&lt;div&gt;&lt;font style=&quot;font-size: 14px;&quot;&gt;Information&lt;/font&gt;&lt;/div&gt;" style="text;html=1;align=center;verticalAlign=middle;resizable=0;points=[];autosize=1;strokeColor=none;fillColor=none;" vertex="1" parent="1">
          <mxGeometry x="200" y="420" width="100" height="50" as="geometry" />
        </mxCell>
        <mxCell id="1mqICacHXQTMG9OdETwi-9" value="" style="endArrow=none;html=1;rounded=0;exitX=0.99;exitY=0.413;exitDx=0;exitDy=0;exitPerimeter=0;" edge="1" parent="1" source="1mqICacHXQTMG9OdETwi-7" target="1mqICacHXQTMG9OdETwi-6">
          <mxGeometry width="50" height="50" relative="1" as="geometry">
            <mxPoint x="303" y="373" as="sourcePoint" />
            <mxPoint x="355" y="387" as="targetPoint" />
          </mxGeometry>
        </mxCell>
        <mxCell id="1mqICacHXQTMG9OdETwi-10" value="" style="endArrow=none;html=1;rounded=0;" edge="1" parent="1" source="ll6-AMVwoymQ2fTwj6-y-1" target="1mqICacHXQTMG9OdETwi-7">
          <mxGeometry width="50" height="50" relative="1" as="geometry">
            <mxPoint x="30" y="437" as="sourcePoint" />
            <mxPoint x="199" y="374" as="targetPoint" />
          </mxGeometry>
        </mxCell>
        <mxCell id="1mqICacHXQTMG9OdETwi-11" value="&lt;font style=&quot;font-size: 14px;&quot;&gt;Ενημερώνει στοιχεία&amp;nbsp;&lt;/font&gt;&lt;div&gt;&lt;font style=&quot;font-size: 14px;&quot;&gt;προφίλ και αποθηκεύει&amp;nbsp;&lt;/font&gt;&lt;/div&gt;&lt;div&gt;&lt;font style=&quot;font-size: 14px;&quot;&gt;τις αλλαγές&lt;/font&gt;&lt;/div&gt;" style="text;html=1;align=center;verticalAlign=middle;resizable=0;points=[];autosize=1;strokeColor=none;fillColor=none;rotation=15;" vertex="1" parent="1">
          <mxGeometry x="42.5" y="415" width="170" height="60" as="geometry" />
        </mxCell>
        <mxCell id="1mqICacHXQTMG9OdETwi-12" value="" style="endArrow=none;html=1;rounded=0;exitX=1.025;exitY=0.64;exitDx=0;exitDy=0;exitPerimeter=0;entryX=0;entryY=0.5;entryDx=0;entryDy=0;" edge="1" parent="1" source="1mqICacHXQTMG9OdETwi-6" target="1mqICacHXQTMG9OdETwi-13">
          <mxGeometry width="50" height="50" relative="1" as="geometry">
            <mxPoint x="470" y="428" as="sourcePoint" />
            <mxPoint x="529" y="364" as="targetPoint" />
          </mxGeometry>
        </mxCell>
        <mxCell id="1mqICacHXQTMG9OdETwi-13" value="" style="ellipse;shape=umlEntity;whiteSpace=wrap;html=1;" vertex="1" parent="1">
          <mxGeometry x="555" y="375" width="80" height="80" as="geometry" />
        </mxCell>
        <mxCell id="1mqICacHXQTMG9OdETwi-14" value="&lt;font style=&quot;font-size: 14px;&quot;&gt;Βάση Δεδομένων&lt;/font&gt;" style="text;html=1;align=center;verticalAlign=middle;resizable=0;points=[];autosize=1;strokeColor=none;fillColor=none;" vertex="1" parent="1">
          <mxGeometry x="540" y="345" width="130" height="30" as="geometry" />
        </mxCell>
        <mxCell id="1mqICacHXQTMG9OdETwi-16" value="&lt;font style=&quot;font-size: 14px;&quot;&gt;Έλεγχος υποχρεωτικών πεδίων&lt;/font&gt;" style="ellipse;shape=umlControl;whiteSpace=wrap;html=1;" vertex="1" parent="1">
          <mxGeometry x="320" y="530" width="120" height="100" as="geometry" />
        </mxCell>
        <mxCell id="1mqICacHXQTMG9OdETwi-17" value="" style="endArrow=none;html=1;rounded=0;exitX=0.94;exitY=0.75;exitDx=0;exitDy=0;exitPerimeter=0;" edge="1" parent="1" source="1mqICacHXQTMG9OdETwi-7" target="1mqICacHXQTMG9OdETwi-16">
          <mxGeometry width="50" height="50" relative="1" as="geometry">
            <mxPoint x="303" y="373" as="sourcePoint" />
            <mxPoint x="355" y="387" as="targetPoint" />
          </mxGeometry>
        </mxCell>
        <mxCell id="1mqICacHXQTMG9OdETwi-18" value="&lt;font style=&quot;font-size: 14px;&quot;&gt;Καταχωρεί στοιχεία προφίλ&lt;/font&gt;" style="ellipse;shape=umlControl;whiteSpace=wrap;html=1;" vertex="1" parent="1">
          <mxGeometry x="545" y="530" width="120" height="100" as="geometry" />
        </mxCell>
        <mxCell id="1mqICacHXQTMG9OdETwi-19" value="" style="endArrow=none;html=1;rounded=0;entryX=0;entryY=0.5;entryDx=0;entryDy=0;entryPerimeter=0;" edge="1" parent="1" source="1mqICacHXQTMG9OdETwi-16" target="1mqICacHXQTMG9OdETwi-18">
          <mxGeometry width="50" height="50" relative="1" as="geometry">
            <mxPoint x="299" y="540" as="sourcePoint" />
            <mxPoint x="340" y="562" as="targetPoint" />
          </mxGeometry>
        </mxCell>
        <mxCell id="1mqICacHXQTMG9OdETwi-20" value="&lt;font style=&quot;font-size: 14px;&quot;&gt;Έγκυρα στοιχεία&lt;/font&gt;" style="text;html=1;align=center;verticalAlign=middle;resizable=0;points=[];autosize=1;strokeColor=none;fillColor=none;" vertex="1" parent="1">
          <mxGeometry x="425" y="550" width="130" height="30" as="geometry" />
        </mxCell>
        <mxCell id="1mqICacHXQTMG9OdETwi-21" value="" style="endArrow=none;html=1;rounded=0;entryX=0.5;entryY=1;entryDx=0;entryDy=0;" edge="1" parent="1" source="1mqICacHXQTMG9OdETwi-18" target="1mqICacHXQTMG9OdETwi-13">
          <mxGeometry width="50" height="50" relative="1" as="geometry">
            <mxPoint x="304" y="513" as="sourcePoint" />
            <mxPoint x="363" y="449" as="targetPoint" />
          </mxGeometry>
        </mxCell>
        <mxCell id="1mqICacHXQTMG9OdETwi-22" value="&lt;font style=&quot;font-size: 14px;&quot;&gt;Εμφάνιση παραθύρου επιβεβαίωσης&lt;/font&gt;" style="ellipse;shape=umlControl;whiteSpace=wrap;html=1;" vertex="1" parent="1">
          <mxGeometry x="405" y="680" width="120" height="100" as="geometry" />
        </mxCell>
        <mxCell id="1mqICacHXQTMG9OdETwi-23" value="" style="endArrow=none;html=1;rounded=0;entryX=1;entryY=0.5;entryDx=0;entryDy=0;entryPerimeter=0;exitX=0.242;exitY=0.96;exitDx=0;exitDy=0;exitPerimeter=0;" edge="1" parent="1" source="1mqICacHXQTMG9OdETwi-18" target="1mqICacHXQTMG9OdETwi-22">
          <mxGeometry width="50" height="50" relative="1" as="geometry">
            <mxPoint x="611" y="540" as="sourcePoint" />
            <mxPoint x="605" y="465" as="targetPoint" />
          </mxGeometry>
        </mxCell>
        <mxCell id="1mqICacHXQTMG9OdETwi-24" value="" style="shape=umlBoundary;whiteSpace=wrap;html=1;" vertex="1" parent="1">
          <mxGeometry x="170" y="610" width="100" height="80" as="geometry" />
        </mxCell>
        <mxCell id="1mqICacHXQTMG9OdETwi-25" value="&lt;font style=&quot;font-size: 14px;&quot;&gt;Profile Changed&lt;/font&gt;" style="text;html=1;align=center;verticalAlign=middle;resizable=0;points=[];autosize=1;strokeColor=none;fillColor=none;" vertex="1" parent="1">
          <mxGeometry x="170" y="580" width="120" height="30" as="geometry" />
        </mxCell>
        <mxCell id="1mqICacHXQTMG9OdETwi-26" value="" style="endArrow=none;html=1;rounded=0;exitX=0.98;exitY=0.675;exitDx=0;exitDy=0;exitPerimeter=0;" edge="1" parent="1" source="1mqICacHXQTMG9OdETwi-24" target="1mqICacHXQTMG9OdETwi-22">
          <mxGeometry width="50" height="50" relative="1" as="geometry">
            <mxPoint x="584" y="636" as="sourcePoint" />
            <mxPoint x="535" y="740" as="targetPoint" />
          </mxGeometry>
        </mxCell>
        <mxCell id="1mqICacHXQTMG9OdETwi-27" value="" style="endArrow=none;html=1;rounded=0;" edge="1" parent="1" source="ll6-AMVwoymQ2fTwj6-y-1" target="1mqICacHXQTMG9OdETwi-24">
          <mxGeometry width="50" height="50" relative="1" as="geometry">
            <mxPoint x="463" y="424" as="sourcePoint" />
            <mxPoint x="565" y="425" as="targetPoint" />
          </mxGeometry>
        </mxCell>
        <mxCell id="1mqICacHXQTMG9OdETwi-28" value="" style="shape=umlBoundary;whiteSpace=wrap;html=1;fontColor=#FF3333;strokeColor=#FF3333;" vertex="1" parent="1">
          <mxGeometry x="72.5" y="750" width="100" height="80" as="geometry" />
        </mxCell>
        <mxCell id="1mqICacHXQTMG9OdETwi-29" value="&lt;font style=&quot;font-size: 14px;&quot;&gt;Edit Profile&amp;nbsp;&lt;/font&gt;&lt;div&gt;&lt;font style=&quot;font-size: 14px;&quot;&gt;Information&lt;/font&gt;&lt;/div&gt;" style="text;html=1;align=center;verticalAlign=middle;resizable=0;points=[];autosize=1;strokeColor=none;fillColor=none;fontColor=#FF3333;" vertex="1" parent="1">
          <mxGeometry x="77.5" y="700" width="100" height="50" as="geometry" />
        </mxCell>
        <mxCell id="1mqICacHXQTMG9OdETwi-30" value="" style="endArrow=none;html=1;rounded=0;entryX=0.975;entryY=0.375;entryDx=0;entryDy=0;entryPerimeter=0;exitX=0.342;exitY=1.02;exitDx=0;exitDy=0;exitPerimeter=0;strokeColor=#FF3333;" edge="1" parent="1" source="1mqICacHXQTMG9OdETwi-16" target="1mqICacHXQTMG9OdETwi-28">
          <mxGeometry width="50" height="50" relative="1" as="geometry">
            <mxPoint x="584" y="636" as="sourcePoint" />
            <mxPoint x="535" y="740" as="targetPoint" />
          </mxGeometry>
        </mxCell>
        <mxCell id="1mqICacHXQTMG9OdETwi-32" value="&lt;font style=&quot;font-size: 14px;&quot;&gt;Μη έγκυρα στοιχεία&lt;/font&gt;" style="text;html=1;align=center;verticalAlign=middle;resizable=0;points=[];autosize=1;strokeColor=none;fillColor=none;rotation=-30;fontColor=#FF3333;" vertex="1" parent="1">
          <mxGeometry x="180" y="730" width="140" height="30" as="geometry" />
        </mxCell>
        <mxCell id="1mqICacHXQTMG9OdETwi-33" value="" style="endArrow=none;html=1;rounded=0;strokeColor=#FF3333;" edge="1" parent="1" source="ll6-AMVwoymQ2fTwj6-y-1" target="1mqICacHXQTMG9OdETwi-28">
          <mxGeometry width="50" height="50" relative="1" as="geometry">
            <mxPoint x="30" y="465" as="sourcePoint" />
            <mxPoint x="189" y="620" as="targetPoint" />
          </mxGeometry>
        </mxCell>
        <mxCell id="1mqICacHXQTMG9OdETwi-34" value="&lt;font style=&quot;font-size: 14px;&quot;&gt;Συμπλήρωση σωστών&amp;nbsp;&lt;/font&gt;&lt;div&gt;&lt;font style=&quot;font-size: 14px;&quot;&gt;στοιχείων προφίλ&lt;/font&gt;&lt;/div&gt;" style="text;html=1;align=center;verticalAlign=middle;resizable=0;points=[];autosize=1;strokeColor=none;fillColor=none;rotation=60;fontColor=#FF3333;" vertex="1" parent="1">
          <mxGeometry x="2.5" y="580" width="170" height="50" as="geometry" />
        </mxCell>
        <mxCell id="1mqICacHXQTMG9OdETwi-35" value="&lt;span style=&quot;font-size: 14px;&quot;&gt;&lt;font style=&quot;color: rgb(255, 51, 51);&quot;&gt;Εμφάνιση μηνύματος ελλιπών στοιχείων χρήστη&lt;/font&gt;&lt;/span&gt;" style="ellipse;shape=umlControl;whiteSpace=wrap;html=1;strokeColor=#FF3333;" vertex="1" parent="1">
          <mxGeometry x="240" y="820" width="120" height="112" as="geometry" />
        </mxCell>
        <mxCell id="1mqICacHXQTMG9OdETwi-36" value="" style="endArrow=none;html=1;rounded=0;strokeColor=#FF3333;" edge="1" parent="1" source="1mqICacHXQTMG9OdETwi-35" target="1mqICacHXQTMG9OdETwi-28">
          <mxGeometry width="50" height="50" relative="1" as="geometry">
            <mxPoint x="371" y="642" as="sourcePoint" />
            <mxPoint x="180" y="790" as="targetPoint" />
          </mxGeometry>
        </mxCell>
        <mxCell id="1mqICacHXQTMG9OdETwi-37" value="" style="shape=umlBoundary;whiteSpace=wrap;html=1;fontColor=#FF3333;strokeColor=#FF3333;" vertex="1" parent="1">
          <mxGeometry x="72.5" y="900" width="100" height="80" as="geometry" />
        </mxCell>
        <mxCell id="1mqICacHXQTMG9OdETwi-38" value="" style="endArrow=none;html=1;rounded=0;strokeColor=#FF3333;entryX=1.005;entryY=0.513;entryDx=0;entryDy=0;entryPerimeter=0;" edge="1" parent="1" source="1mqICacHXQTMG9OdETwi-35" target="1mqICacHXQTMG9OdETwi-37">
          <mxGeometry width="50" height="50" relative="1" as="geometry">
            <mxPoint x="257" y="860" as="sourcePoint" />
            <mxPoint x="183" y="824" as="targetPoint" />
          </mxGeometry>
        </mxCell>
        <mxCell id="1mqICacHXQTMG9OdETwi-39" value="&lt;font style=&quot;font-size: 14px; color: rgb(255, 51, 51);&quot;&gt;Wrong Profile Changes&lt;/font&gt;" style="text;html=1;align=center;verticalAlign=middle;resizable=0;points=[];autosize=1;strokeColor=none;fillColor=none;" vertex="1" parent="1">
          <mxGeometry x="45" y="868" width="170" height="30" as="geometry" />
        </mxCell>
      </root>
    </mxGraphModel>
  </diagram>
</mxfile>
